Run_20002
nRows=4
nColumns=164

# SIMM Motion File Header:
name Run_20002
datacolumns 164
datarows 4
otherdata 1
range 1.41000000 1.44000000
endheader
time	pelvis_tilt	pelvis_list	pelvis_rotation	pelvis_tx	pelvis_ty	pelvis_tz	hip_flexion_r	hip_adduction_r	hip_rotation_r	knee_angle_r	ankle_angle_r	hip_flexion_l	hip_adduction_l	hip_rotation_l	knee_angle_l	ankle_angle_l	lumbar_extension	lumbar_bending	lumbar_rotation	arm_flex_r	arm_add_r	arm_rot_r	elbow_flex_r	pro_sup_r	arm_flex_l	arm_add_l	arm_rot_l	elbow_flex_l	pro_sup_l	subtalar_angle_r	mtp_angle_r	subtalar_angle_l	mtp_angle_l	wrist_flex_r	wrist_dev_r	wrist_flex_l	wrist_dev_l	LPSI_tx	LPSI_ty	LPSI_tz	RPSI_tx	RPSI_ty	RPSI_tz	RTH1_tx	RTH1_ty	RTH1_tz	RTH2_tx	RTH2_ty	RTH2_tz	RTH3_tx	RTH3_ty	RTH3_tz	LTH1_tx	LTH1_ty	LTH1_tz	LTH2_tx	LTH2_ty	LTH2_tz	LTH3_tx	LTH3_ty	LTH3_tz	RTB1_tx	RTB1_ty	RTB1_tz	RTB2_tx	RTB2_ty	RTB2_tz	RTB3_tx	RTB3_ty	RTB3_tz	LTB1_tx	LTB1_ty	LTB1_tz	LTB2_tx	LTB2_ty	LTB2_tz	LTB3_tx	LTB3_ty	LTB3_tz	RCAL_tx	RCAL_ty	RCAL_tz	RTOE_tx	RTOE_ty	RTOE_tz	RMT5_tx	RMT5_ty	RMT5_tz	LCAL_tx	LCAL_ty	LCAL_tz	LTOE_tx	LTOE_ty	LTOE_tz	LMT5_tx	LMT5_ty	LMT5_tz	LACR_tx	LACR_ty	LACR_tz	RACR_tx	RACR_ty	RACR_tz	CLAV_tx	CLAV_ty	CLAV_tz	C7_tx	C7_ty	C7_tz	RUA1_tx	RUA1_ty	RUA1_tz	RUA2_tx	RUA2_ty	RUA2_tz	RUA3_tx	RUA3_ty	RUA3_tz	RLEL_tx	RLEL_ty	RLEL_tz	RMEL_tx	RMEL_ty	RMEL_tz	LUA1_tx	LUA1_ty	LUA1_tz	LUA2_tx	LUA2_ty	LUA2_tz	LUA3_tx	LUA3_ty	LUA3_tz	LLEL_tx	LLEL_ty	LLEL_tz	LMEL_tx	LMEL_ty	LMEL_tz	RFAsuperior_tx	RFAsuperior_ty	RFAsuperior_tz	RFAradius_tx	RFAradius_ty	RFAradius_tz	RFAulna_tx	RFAulna_ty	RFAulna_tz	LFAsuperior_tx	LFAsuperior_ty	LFAsuperior_tz	LFAradius_tx	LFAradius_ty	LFAradius_tz	LFAulna_tx	LFAulna_ty	LFAulna_tz	RASI_tx	RASI_ty	RASI_tz	LASI_tx	LASI_ty	LASI_tz
      1.41000000	     -1.79755128	      0.19684672	      0.19310631	      0.79603682	      1.04238802	     -0.47706672	     22.32825756	     -0.58781777	     -0.03863836	    -43.76456423	     -0.90635507	     -4.90106578	      1.57433087	     -4.25654856	    -22.95981391	     -4.76294043	     -8.66075511	      0.05004897	    -14.31531836	    -26.96333176	    -22.22450261	      9.55260843	    102.91826523	     76.17528631	     -7.66308031	    -36.86196694	     17.96213280	    124.63891325	     74.73106664	      0.00000000	      0.00000000	      0.00000000	      0.00000000	      0.00000000	      0.00000000	      0.00000000	      0.00000000	      0.62179309	      1.10984526	     -0.52695394	      0.61816551	      1.10828466	     -0.44309633	      0.76457553	      0.90955857	     -0.29325530	      0.86008632	      0.79701427	     -0.30715641	      0.81826269	      0.67925327	     -0.30844622	      0.71971746	      0.91201750	     -0.66348887	      0.76768388	      0.78787385	     -0.64149667	      0.66120883	      0.66659735	     -0.63353117	      0.85985283	      0.43307338	     -0.35253400	      0.77883607	      0.35768609	     -0.30054153	      0.77362779	      0.25372348	     -0.35716469	      0.64617747	      0.43028331	     -0.56956376	      0.55926754	      0.38539832	     -0.63234806	      0.54098773	      0.25277081	     -0.56045420	      0.61018226	      0.16136363	     -0.37730923	      0.83418967	      0.09773842	     -0.36549015	      0.79384774	      0.07133030	     -0.28313269	      0.36047531	      0.17793182	     -0.53633162	      0.55973223	      0.06708422	     -0.55575444	      0.51292572	      0.05381881	     -0.63327962	      0.81001739	      1.55652505	     -0.63824630	      0.74068270	      1.55172791	     -0.30945290	      0.84711212	      1.50928645	     -0.43666049	      0.72113844	      1.58882907	     -0.49779466	      0.64681035	      1.46919336	     -0.24147007	      0.56538612	      1.41863195	     -0.28155929	      0.57489615	      1.38023578	     -0.21117793	      0.53054420	      1.29448919	     -0.18726737	      0.50084071	      1.28330590	     -0.26529714	      0.79127848	      1.46259549	     -0.74701879	      0.72783157	      1.38327559	     -0.76306375	      0.79016897	      1.35652135	     -0.80644418	      0.80423008	      1.27571124	     -0.84445708	      0.74140501	      1.23389987	     -0.81540221	      0.58532752	      1.23310225	     -0.19447412	      0.77037052	      1.18328476	     -0.27001730	      0.72832805	      1.12534342	     -0.26182667	      0.88381840	      1.24739853	     -0.75224230	      0.92992239	      1.28967328	     -0.60853543	      0.93349801	      1.22123740	     -0.61909658	      0.79571458	      1.04030338	     -0.35232457	      0.80321100	      1.04377186	     -0.60537289
      1.42000000	     -1.96447063	     -0.15108331	     -0.05977758	      0.79736338	      1.04776120	     -0.47582167	     21.40704977	     -0.10121617	      0.36840181	    -37.67182943	     -1.54986992	     -5.92114649	      1.05590097	     -4.74304839	    -22.41456393	     -8.32684836	     -8.36126880	      0.60274182	    -14.55271413	    -27.81850627	    -22.57690430	      8.86146739	    103.38817375	     76.48890380	     -7.62256372	    -36.63429797	     17.79241435	    125.43383681	     74.34860690	      0.00000000	      0.00000000	      0.00000000	      0.00000000	      0.00000000	      0.00000000	      0.00000000	      0.00000000	      0.62386880	      1.11526096	     -0.52687736	      0.62020190	      1.11392044	     -0.44325298	      0.76433784	      0.91594023	     -0.29237911	      0.85794755	      0.80179440	     -0.30640140	      0.81391921	      0.68410854	     -0.30736246	      0.72016871	      0.91679483	     -0.66281031	      0.76539069	      0.79191220	     -0.64106137	      0.65593896	      0.67282302	     -0.63335210	      0.86529681	      0.43647809	     -0.35035648	      0.79059766	      0.35515543	     -0.29860172	      0.79459023	      0.25079106	     -0.35538753	      0.63724493	      0.43670119	     -0.57059487	      0.54951438	      0.39313296	     -0.63322219	      0.53144411	      0.25959762	     -0.56276415	      0.63959942	      0.14533865	     -0.37616800	      0.86776544	      0.09961581	     -0.36459200	      0.82948938	      0.06922303	     -0.28245799	      0.35144106	      0.19015662	     -0.53774244	      0.54152016	      0.06707618	     -0.55528821	      0.49481784	      0.05511213	     -0.63280558	      0.81205341	      1.56241665	     -0.63397927	      0.73978444	      1.55703786	     -0.30800058	      0.84693014	      1.51536013	     -0.43402713	      0.72217517	      1.59453130	     -0.49603848	      0.64466215	      1.47630320	     -0.24069215	      0.56382883	      1.42595781	     -0.28239448	      0.57144279	      1.38825103	     -0.21121557	      0.52583819	      1.30273903	     -0.18744164	      0.49697868	      1.29146469	     -0.26572701	      0.79504891	      1.46913473	     -0.74409826	      0.73132080	      1.38987451	     -0.76121846	      0.79385914	      1.36287153	     -0.80389413	      0.80891927	      1.28198426	     -0.84215207	      0.74606514	      1.23992642	     -0.81278324	      0.58024054	      1.24113262	     -0.19342930	      0.76628804	      1.19017651	     -0.26642848	      0.72380804	      1.13227557	     -0.25820499	      0.88752907	      1.25561118	     -0.74850469	      0.93200985	      1.29982953	     -0.60510637	      0.93621201	      1.23141864	     -0.61425426	      0.79612740	      1.04631330	     -0.35071168	      0.80408204	      1.04902729	     -0.60373741
      1.43000000	     -2.25503174	     -0.35732824	     -0.36424396	      0.79872812	      1.05224044	     -0.47420648	     20.44891493	      0.26982072	      1.03533521	    -31.40137047	     -2.57761210	     -6.58035833	      0.65099359	     -5.40339762	    -22.22149900	    -11.82348974	     -7.89122911	      0.95647534	    -14.68990787	    -28.65083211	    -22.77196454	      8.09562445	    103.76778975	     76.63482746	     -7.68816537	    -36.43959792	     17.70532591	    126.17138709	     73.85090544	      0.00000000	      0.00000000	      0.00000000	      0.00000000	      0.00000000	      0.00000000	      0.00000000	      0.00000000	      0.62604640	      1.12024620	     -0.52671751	      0.62193731	      1.11903483	     -0.44289799	      0.76390057	      0.92142249	     -0.29152381	      0.85514086	      0.80530685	     -0.30537845	      0.80844288	      0.68769460	     -0.30637576	      0.72060855	      0.92132295	     -0.66217435	      0.76351881	      0.79563672	     -0.64102181	      0.65166414	      0.67857085	     -0.63319770	      0.86984924	      0.43990017	     -0.34847481	      0.80191830	      0.35300671	     -0.29670885	      0.81499511	      0.24890533	     -0.35319542	      0.62981357	      0.44259562	     -0.57168589	      0.54126200	      0.40042960	     -0.63422666	      0.52298912	      0.26607254	     -0.56497317	      0.66940703	      0.13158092	     -0.37477937	      0.90011342	      0.10289226	     -0.36366803	      0.86441525	      0.06842271	     -0.28217984	      0.34387068	      0.20274220	     -0.53916370	      0.52413389	      0.06733461	     -0.55503387	      0.47710308	      0.05694499	     -0.63237213	      0.81390499	      1.56785031	     -0.63035477	      0.73903046	      1.56166900	     -0.30655049	      0.84677825	      1.52090515	     -0.43146388	      0.72316533	      1.59963288	     -0.49417264	      0.64271390	      1.48261685	     -0.23993104	      0.56246748	      1.43254706	     -0.28313330	      0.56824437	      1.39526815	     -0.21146705	      0.52165944	      1.31006175	     -0.18782636	      0.49385651	      1.29851036	     -0.26644247	      0.79827966	      1.47510996	     -0.74111193	      0.73420849	      1.39586253	     -0.75899053	      0.79682926	      1.36874780	     -0.80126278	      0.81289617	      1.28788690	     -0.83995893	      0.74991382	      1.24561845	     -0.81001867	      0.57581544	      1.24834656	     -0.19251544	      0.76293735	      1.19629563	     -0.26263279	      0.71986947	      1.13838486	     -0.25460723	      0.89050964	      1.26295135	     -0.74480615	      0.93357189	      1.30874900	     -0.60163910	      0.93803764	      1.24048655	     -0.60933461	      0.79677641	      1.05135712	     -0.34863226	      0.80518899	      1.05331782	     -0.60163665
      1.44000000	     -2.65094764	     -0.42280200	     -0.62335988	      0.80023702	      1.05572485	     -0.47275758	     19.52216219	      0.41058553	      1.69176235	    -25.23081005	     -3.99870424	     -6.89211293	      0.38745779	     -6.00881476	    -22.42102357	    -15.10514995	     -7.26041112	      1.16240467	    -14.81004799	    -29.47112965	    -22.85844712	      7.21019048	    104.11556083	     76.60444070	     -7.83411203	    -36.21206241	     17.73876140	    126.80484249	     73.59361566	      0.00000000	      0.00000000	      0.00000000	      0.00000000	      0.00000000	      0.00000000	      0.00000000	      0.00000000	      0.62843054	      1.12475188	     -0.52662696	      0.62349082	      1.12358555	     -0.44223522	      0.76355667	      0.92570226	     -0.29086109	      0.85177374	      0.80747701	     -0.30405658	      0.80205522	      0.68989499	     -0.30571696	      0.72112792	      0.92542615	     -0.66140838	      0.76229371	      0.79887585	     -0.64122724	      0.64857532	      0.68357286	     -0.63293514	      0.87375223	      0.44332552	     -0.34695741	      0.81253688	      0.35154346	     -0.29501246	      0.83441461	      0.24829397	     -0.35075136	      0.62382911	      0.44761958	     -0.57263064	      0.53455932	      0.40703431	     -0.63527382	      0.51541820	      0.27208258	     -0.56703820	      0.69850729	      0.12080254	     -0.37337578	      0.93035807	      0.10733216	     -0.36231332	      0.89736241	      0.06880075	     -0.28182931	      0.33744678	      0.21553973	     -0.54068224	      0.50753161	      0.06790431	     -0.55501272	      0.45977874	      0.05948550	     -0.63203579	      0.81557589	      1.57277225	     -0.62755808	      0.73847376	      1.56548975	     -0.30510447	      0.84665596	      1.52567393	     -0.42899512	      0.72408779	      1.60397804	     -0.49221616	      0.64095254	      1.48804620	     -0.23922358	      0.56134006	      1.43806474	     -0.28388306	      0.56538851	      1.40124234	     -0.21177199	      0.51798813	      1.31632459	     -0.18828259	      0.49173926	      1.30425982	     -0.26754077	      0.80090165	      1.48040950	     -0.73829203	      0.73657312	      1.40110621	     -0.75640813	      0.79921221	      1.37409217	     -0.79866534	      0.81592713	      1.29317995	     -0.83758802	      0.75310621	      1.25073305	     -0.80733812	      0.57209022	      1.25454645	     -0.19174662	      0.76029665	      1.20156131	     -0.25856941	      0.71676422	      1.14371359	     -0.25103663	      0.89282039	      1.26931406	     -0.74118097	      0.93440790	      1.31626745	     -0.59800099	      0.93910308	      1.24818506	     -0.60448319	      0.79774431	      1.05544869	     -0.34690073	      0.80661439	      1.05665659	     -0.59988481
